<svg xmlns="http://www.w3.org/2000/svg" width="30" height="30" viewBox="0 0 30 30">
  <defs>
    <style>
      .cls-1 {
        fill: #fff;
        fill-rule: evenodd;
      }
    </style>
  </defs>
  <path id="Forma_1" data-name="Forma 1" class="cls-1" d="M934.133,5363.9l-0.017-.02a0.586,0.586,0,1,0-.827.83l0.019,0.02a0.6,0.6,0,0,0,.413.17,0.606,0.606,0,0,0,.416-0.17A0.587,0.587,0,0,0,934.133,5363.9Zm12.579-12.61a9.492,9.492,0,0,0-14.943,11.44,0.585,0.585,0,1,0,1.016-.58,8.321,8.321,0,1,1,3.025,3.04,0.585,0.585,0,1,0-.591,1.01A9.491,9.491,0,0,0,946.712,5351.29Zm8.286,4.14a0.582,0.582,0,0,0-.494-0.58l-2.163-.35-1.148-2.76,1.286-1.78a0.574,0.574,0,0,0-.06-0.75l-3.634-3.64a0.6,0.6,0,0,0-.759-0.06l-1.771,1.29-2.769-1.14-0.344-2.17a0.587,0.587,0,0,0-.579-0.49h-5.138a0.586,0.586,0,0,0-.578.5l-0.343,2.16-2.767,1.15-1.773-1.29a0.589,0.589,0,0,0-.758.06l-3.632,3.64a0.575,0.575,0,0,0-.059.75l1.286,1.77-1.145,2.77-2.162.35a0.581,0.581,0,0,0-.494.58l0,5.13a0.582,0.582,0,0,0,.494.58l2.163,0.35,1.148,2.76-1.286,1.78a0.574,0.574,0,0,0,.06.75l3.634,3.64a0.589,0.589,0,0,0,.759.05l1.771-1.28,2.769,1.14,0.344,2.17a0.587,0.587,0,0,0,.579.49h5.137a0.587,0.587,0,0,0,.579-0.5l0.343-2.16,2.767-1.15,1.772,1.29a0.59,0.59,0,0,0,.759-0.06l3.631-3.64a0.574,0.574,0,0,0,.06-0.75l-1.287-1.78,1.146-2.76,2.162-.35a0.581,0.581,0,0,0,.494-0.58Zm-3.162,4.95a0.593,0.593,0,0,0-.449.35l-1.4,3.38a0.589,0.589,0,0,0,.068.57l1.185,1.63-2.924,2.93-1.634-1.19a0.606,0.606,0,0,0-.568-0.07l-3.373,1.4a0.593,0.593,0,0,0-.355.45l-0.315,2h-4.137l-0.318-1.99a0.561,0.561,0,0,0-.354-0.45l-3.375-1.4a0.576,0.576,0,0,0-.224-0.04,0.546,0.546,0,0,0-.345.11l-1.631,1.18-2.927-2.92,1.185-1.64a0.567,0.567,0,0,0,.067-0.56l-1.4-3.38a0.593,0.593,0,0,0-.449-0.35l-1.993-.32,0-4.13,1.992-.32a0.585,0.585,0,0,0,.449-0.36l1.4-3.37a0.589,0.589,0,0,0-.068-0.57l-1.185-1.63,2.924-2.93,1.634,1.19a0.578,0.578,0,0,0,.568.06l3.373-1.39a0.593,0.593,0,0,0,.355-0.45l0.315-2h4.137l0.317,1.99a0.593,0.593,0,0,0,.355.45l3.375,1.4a0.582,0.582,0,0,0,.569-0.07l1.631-1.18,2.927,2.92-1.185,1.63a0.589,0.589,0,0,0-.067.57l1.4,3.38a0.593,0.593,0,0,0,.449.35l1.993,0.32,0,4.13Zm-6.5-1.65a3.2,3.2,0,0,0-2.69-.8l-2.573-2.58a3.259,3.259,0,0,0-4.435-3.52,0.574,0.574,0,0,0-.356.42,0.6,0.6,0,0,0,.159.54l0.85,0.84a0.471,0.471,0,0,1,0,.66,0.462,0.462,0,0,1-.653,0l-0.852-.86a0.639,0.639,0,0,0-.531-0.16,0.6,0.6,0,0,0-.427.36,3.279,3.279,0,0,0,.832,3.64,3.207,3.207,0,0,0,2.693.8l2.571,2.57a3.278,3.278,0,0,0,.916,2.81,3.233,3.233,0,0,0,2.3.96,3.277,3.277,0,0,0,1.224-.24,0.588,0.588,0,0,0,.2-0.96l-0.846-.84a0.471,0.471,0,0,1,0-.66,0.461,0.461,0,0,1,.652,0l0.844,0.85a0.583,0.583,0,0,0,.532.16,0.6,0.6,0,0,0,.426-0.36A3.273,3.273,0,0,0,945.338,5358.73Zm-0.138,2.15a1.633,1.633,0,0,0-2.31,2.31l0.029,0.03a2.048,2.048,0,0,1-1.249-.6,2.1,2.1,0,0,1-.541-2.02,0.578,0.578,0,0,0-.151-0.56l-3.019-3.02a0.589,0.589,0,0,0-.414-0.17,0.762,0.762,0,0,0-.15.02,2.087,2.087,0,0,1-2.617-1.79l0.034,0.04a1.633,1.633,0,0,0,2.309-2.31l-0.027-.03a2.091,2.091,0,0,1,1.777,2.61,0.6,0.6,0,0,0,.152.57l3.02,3.02a0.586,0.586,0,0,0,.564.15,2.085,2.085,0,0,1,2.613,1.78Zm0.152-7.06a6.779,6.779,0,0,0-3.855-2.45,0.589,0.589,0,0,0-.257,1.15,5.622,5.622,0,0,1,3.189,2.02,0.574,0.574,0,0,0,.462.22,0.6,0.6,0,0,0,.361-0.12A0.584,0.584,0,0,0,945.352,5353.82Zm1.119,2.11-0.008-.03a0.594,0.594,0,0,0-.738-0.38,0.587,0.587,0,0,0-.377.74l0.007,0.03a0.591,0.591,0,0,0,.558.4,1.1,1.1,0,0,0,.179-0.02A0.589,0.589,0,0,0,946.471,5355.93Z" transform="translate(-925 -5343)"/>
</svg>
